# xmcd
#
# Track frame offsets:
#	150
#	15017
#	28972
#	41532
#	59122
#	70605
#	87877
#	104210
#	114272
#	133000
#	143612
#	160947
#	172218
#	187295
#	197493
#	215545
#	241550
#	253598
#	269360
#	280518
#	298450
#	312890
#	323373
#	334705
#
# Disc length: 4704 seconds
#
# Revision: 1
# Processed by: cddbd v1.4PL0 Copyright (c) Steve Scherf et al.
# Submitted via: audiograbber 1.81.03
#
DISCID=62125e18
DTITLE=Ray Charles - Dedicated To You and Have A Smale With Me
DYEAR=1900
DGENRE=
TTITLE0=Hardhearted Hannah
TTITLE1=Nancy
TTITLE2=Margie
TTITLE3=Ruby
TTITLE4=Rosetta
TTITLE5=Stella By Starlight
TTITLE6=Chery
TTITLE7=Josephine
TTITLE8=Candy
TTITLE9=Marie
TTITLE10=Diane
TTITLE11=Sweet Georgia Brown
TTITLE12=Smack Dab In The Middle
TTITLE13=Feddin And Fightin
TTITLE14=Two Ton Tessie
TTITLE15=I Never See Maggie Alone
TTITLE16=Move It On Over
TTITLE17=Ma (She`s Makking Eyes At Me)
TTITLE18=The Thing
TTITLE19=The Man With The Weird Beard
TTITLE20=The Naughty Lady Of Shady Line
TTITLE21=Who Cabes (For Me)
TTITLE22=Without A Song (Part 1)
TTITLE23=Without A Song (Part 2)
EXTD=2 albums on 1 CD
EXTT0=
EXTT1=
EXTT2=
EXTT3=
EXTT4=
EXTT5=
EXTT6=
EXTT7=
EXTT8=
EXTT9=
EXTT10=
EXTT11=
EXTT12=
EXTT13=
EXTT14=
EXTT15=
EXTT16=
EXTT17=
EXTT18=
EXTT19=
EXTT20=
EXTT21=
EXTT22=
EXTT23=
PLAYORDER=
